<svg width="209" height="216" viewBox="0 0 209 216" xmlns="http://www.w3.org/2000/svg" xmlns:xlink="http://www.w3.org/1999/xlink">
    <defs>
        <path id="co046f2f8a" d="M0 0h168.376v156.508H0z"/>
    </defs>
    <g fill="none" fill-rule="evenodd">
        <g transform="translate(20.388 59.492)">
            <mask id="7kd2pdtwab" fill="#fff">
                <use xlink:href="#co046f2f8a"/>
            </mask>
            <path d="M44.105 13.645a1.16 1.16 0 0 1-1.023-.617 1.153 1.153 0 0 1 .48-1.57L64.849.133a1.158 1.158 0 0 1 1.086 2.045L44.647 13.505c-.173.095-.36.14-.542.14zm41.813 77.063 14.099 18.415 65.468-37.837-14.206-18.355-65.361 37.777zM2.88 71.353l65.37 37.774 14.21-18.353-65.47-37.839L2.88 71.353zM68.55 111.8c-.198 0-.398-.052-.578-.157L.583 72.7a1.197 1.197 0 0 1-.562-.78 1.18 1.18 0 0 1 .217-.929l14.986-19.565L1.732 35.303a1.18 1.18 0 0 1-.253-.97c.07-.34.29-.64.597-.802l13.322-7.085a1.161 1.161 0 0 1 1.564.48c.301.566.082 1.269-.478 1.568L4.428 34.907l13.096 15.66 66.61 38.494 65.26-37.716-10.996-6.356a1.168 1.168 0 0 1-.425-1.584 1.164 1.164 0 0 1 1.584-.425l11.874 6.862 12.697-16.28-37.693-20.053a1.16 1.16 0 0 1 1.086-2.047l38.915 20.7c.299.163.516.45.59.783.07.336-.01.685-.22.956L153.09 51.488l15.038 19.426a1.153 1.153 0 0 1-.334 1.717l-67.495 39.012a1.166 1.166 0 0 1-1.504-.3L84.214 92.3l-14.751 19.052c-.226.291-.57.448-.914.448zm15.666 44.709c-.074 0-.155-.01-.226-.022v-.006h-.01c-.043-.008-.09-.024-.134-.036h-.01a1.54 1.54 0 0 1-.216-.104l-67.525-39a1.166 1.166 0 0 1-.58-1.011l.064-28.176c0-.638.516-1.156 1.159-1.156s1.16.522 1.16 1.162l-.064 27.503 65.222 37.674-.007-53.998c0-.643.516-1.16 1.157-1.16.644 0 1.159.517 1.159 1.16l.01 53.998 65.187-37.674-.071-29.637c0-.638.516-1.165 1.159-1.165.64 0 1.157.517 1.157 1.16l.073 30.309c0 .418-.218.8-.58 1.012l-67.497 39.004c0 .004 0 .004-.008.004-.01.008-.026.016-.036.022a1.172 1.172 0 0 1-.543.137z" fill="#FFF" mask="url(#7kd2pdtwab)"/>
        </g>
        <path d="M112.224 32.287h-.038a1.165 1.165 0 0 1-1.121-1.196l.063-1.635c-1.648-.262-3.15-.96-4.326-2.01-1.501-1.35-2.298-3.119-2.225-4.984a1.154 1.154 0 0 1 1.159-1.119h.033a1.173 1.173 0 0 1 1.124 1.2c-.046 1.168.47 2.293 1.458 3.176 1.038.933 2.47 1.477 4.007 1.53 1.521.056 3.007-.39 4.109-1.249 1.042-.811 1.64-1.898 1.685-3.063.027-.883.118-3.578-5.655-4.7-4.455-.872-7.044-3.155-6.943-6.117.053-1.63.914-3.116 2.407-4.18 1.112-.788 2.49-1.277 3.964-1.413l.053-1.632c.028-.637.436-1.095 1.205-1.119.643.024 1.14.559 1.114 1.2l-.056 1.636c3.476.572 6.065 3.095 5.964 6.021-.018.638-.588 1.155-1.193 1.119a1.163 1.163 0 0 1-1.123-1.2c.063-1.93-2.172-3.643-4.888-3.734-1.448-.062-2.706.309-3.693 1.015-.896.634-1.412 1.478-1.438 2.369-.09 2.552 3.855 3.52 5.068 3.756 6.38 1.245 7.611 4.528 7.53 7.06-.071 1.868-.987 3.574-2.58 4.816-1.25.97-2.796 1.554-4.452 1.703l-.053 1.631a1.158 1.158 0 0 1-1.16 1.119M39.126 66.292c-.443 0-.869-.257-1.059-.693l-.65-1.495c-1.603.48-3.25.507-4.771.07-1.937-.559-3.42-1.81-4.172-3.517a1.161 1.161 0 0 1 2.126-.933c.463 1.068 1.42 1.858 2.689 2.218 1.347.4 2.86.263 4.272-.36h.008c1.412-.626 2.534-1.66 3.159-2.913.58-1.182.653-2.424.18-3.485-.36-.814-1.438-3.283-7.13-1.784-4.39 1.156-7.721.226-8.906-2.487-1.177-2.68.289-5.987 3.313-7.805l-.66-1.499a1.156 1.156 0 1 1 2.116-.929l.66 1.495c1.413-.425 2.869-.48 4.2-.158 1.782.43 3.131 1.495 3.784 2.99a1.158 1.158 0 0 1-2.118.933c-.362-.82-1.14-1.408-2.208-1.668-1.177-.285-2.536-.134-3.81.428-2.49 1.095-3.938 3.514-3.16 5.28 1.024 2.337 5.004 1.496 6.19 1.179 6.309-1.664 8.825.768 9.85 3.089.749 1.708.666 3.647-.228 5.453-.706 1.413-1.846 2.617-3.268 3.47l.65 1.494c.264.586 0 1.269-.587 1.526a1.12 1.12 0 0 1-.47.101m122.341 5.68c-.218 0-.435-.059-.635-.185a1.17 1.17 0 0 1-.344-1.604l.888-1.372c-2.967-2.487-3.91-6.483-2.063-9.364a1.158 1.158 0 0 1 1.6-.342 1.15 1.15 0 0 1 .354 1.597c-1.349 2.093-.316 5.164 2.29 6.845h.009v.004c2.607 1.676 5.819 1.35 7.178-.742.479-.743 1.928-3.012-2.463-6.94-3.374-3.022-4.434-6.314-2.832-8.805 1.584-2.462 5.158-3.054 8.325-1.54l.886-1.373a1.162 1.162 0 0 1 1.605-.354c.532.348.688 1.065.344 1.603l-.888 1.377c2.698 2.27 3.637 5.767 2.055 8.227a1.151 1.151 0 0 1-1.602.348 1.152 1.152 0 0 1-.345-1.598c1.043-1.627-.01-4.241-2.29-5.712-2.289-1.473-5.103-1.347-6.144.275-1.377 2.148 1.51 5.002 2.433 5.827 4.852 4.335 4.227 7.786 2.86 9.918-1.855 2.881-5.88 3.675-9.366 2.004l-.886 1.372c-.22.349-.59.535-.969.535M142.568 29.085a2.873 2.873 0 0 0 0 4.067c1.088 1.083 2.979 1.083 4.064 0a2.879 2.879 0 0 0 0-4.067 2.868 2.868 0 0 0-4.064 0zm-1.638 5.706a5.19 5.19 0 0 1 0-7.346c1.964-1.966 5.378-1.966 7.34 0a5.196 5.196 0 0 1 0 7.346 5.19 5.19 0 0 1-7.34 0zM201.775 93.009a2.897 2.897 0 0 0 0 4.067 2.87 2.87 0 0 0 4.064 0 2.87 2.87 0 0 0 0-4.067 2.881 2.881 0 0 0-4.064 0m-1.638 5.706c-2.02-2.023-2.02-5.316 0-7.346 2.027-2.021 5.32-2.021 7.34 0a5.19 5.19 0 0 1 0 7.346 5.19 5.19 0 0 1-7.34 0M45.193 23.375a2.884 2.884 0 0 0 0 4.067c1.086 1.087 2.987 1.087 4.063 0a2.87 2.87 0 0 0 0-4.067c-1.076-1.083-2.977-1.083-4.063 0m-1.638 5.706a5.196 5.196 0 0 1 0-7.346h.008c1.954-1.962 5.374-1.956 7.33 0a5.19 5.19 0 0 1 0 7.346 5.182 5.182 0 0 1-7.338 0M115.763 48.413c-13.216 0-23.956 5.735-23.956 12.787 0 6.935 10.968 12.79 23.956 12.79 12.995 0 23.963-5.855 23.963-12.79 0-7.052-10.75-12.787-23.963-12.787m0 27.893c-14.735 0-26.272-6.635-26.272-15.106 0-8.47 11.537-15.105 26.272-15.105 14.742 0 26.281 6.635 26.281 15.105 0 8.471-11.54 15.106-26.281 15.106" fill="#FFF"/>
        <path d="M115.763 53.94c-10.343 0-17.557 3.827-17.557 7.26 0 3.438 7.214 7.265 17.557 7.265 10.352 0 17.556-3.827 17.556-7.264 0-3.434-7.204-7.261-17.556-7.261m0 16.846c-11.143 0-19.875-4.21-19.875-9.585 0-5.372 8.732-9.58 19.875-9.58 11.15 0 19.875 4.208 19.875 9.58 0 5.375-8.725 9.585-19.875 9.585M115.763 87.709c-14.735 0-26.272-6.637-26.272-15.106 0-.64.516-1.16 1.157-1.16.633 0 1.159.52 1.159 1.16 0 6.934 10.968 12.787 23.956 12.787 12.995 0 23.963-5.853 23.963-12.787a1.159 1.159 0 1 1 2.318 0c0 8.469-11.54 15.106-26.281 15.106M101.536 97.756a1.1 1.1 0 0 1-.407-.081c-2.336-.89-4.391-1.98-6.1-3.244a1.16 1.16 0 0 1-.254-1.621 1.156 1.156 0 0 1 1.618-.25c1.551 1.143 3.424 2.135 5.559 2.949.597.231.896.9.67 1.498a1.167 1.167 0 0 1-1.086.749M140.188 89.53a1.16 1.16 0 0 1-1.058-1.622 7.023 7.023 0 0 0 .597-2.812 1.157 1.157 0 1 1 2.317 0 9.311 9.311 0 0 1-.788 3.736c-.19.436-.615.697-1.068.697M99.925 109.574c-.164 0-.327-.032-.48-.099-1.838-.83-3.476-1.798-4.86-2.877a1.173 1.173 0 0 1-.2-1.627 1.163 1.163 0 0 1 1.631-.202c1.239.964 2.714 1.833 4.388 2.59.58.263.842.95.58 1.536-.199.426-.616.68-1.06.68M99.925 122.07c-.164 0-.327-.036-.48-.103-1.828-.824-3.466-1.794-4.85-2.873a1.167 1.167 0 0 1-.21-1.63 1.16 1.16 0 0 1 1.621-.205c1.249.972 2.724 1.841 4.398 2.597a1.157 1.157 0 0 1-.48 2.214M99.925 134.563c-.164 0-.327-.031-.48-.099-1.646-.746-3.132-1.603-4.426-2.55a1.155 1.155 0 0 1-.243-1.62 1.151 1.151 0 0 1 1.618-.25c1.16.852 2.506 1.627 4.01 2.306.58.263.842.946.58 1.534-.199.428-.616.68-1.06.68M66.411 77.517c-12.996 0-23.964 5.853-23.964 12.787 0 7.053 10.75 12.789 23.964 12.789 13.215 0 23.956-5.736 23.956-12.79 0-6.933-10.968-12.786-23.956-12.786m0 27.894c-14.742 0-26.282-6.637-26.282-15.107 0-8.471 11.54-15.106 26.282-15.106 14.734 0 26.274 6.635 26.274 15.106 0 8.47-11.54 15.107-26.274 15.107" fill="#FFF"/>
        <path d="M66.411 83.043c-10.353 0-17.557 3.827-17.557 7.26 0 3.44 7.204 7.263 17.557 7.263 10.345 0 17.559-3.823 17.559-7.262 0-3.434-7.214-7.261-17.559-7.261m0 16.842c-11.15 0-19.873-4.21-19.873-9.581 0-5.376 8.723-9.58 19.873-9.58 11.142 0 19.875 4.204 19.875 9.58 0 5.371-8.733 9.581-19.875 9.581M66.411 116.813c-14.742 0-26.282-6.637-26.282-15.108 0-.643.517-1.158 1.16-1.158.642 0 1.158.515 1.158 1.158 0 6.932 10.968 12.79 23.964 12.79 12.988 0 23.956-5.858 23.956-12.79a1.16 1.16 0 0 1 1.159-1.158c.64 0 1.159.515 1.159 1.158 0 8.47-11.54 15.108-26.274 15.108M75.38 128.39a1.16 1.16 0 0 1-1.14-.92 1.164 1.164 0 0 1 .896-1.372c9.113-1.934 15.23-6.718 15.23-11.9 0-.637.527-1.16 1.16-1.16.64 0 1.159.523 1.159 1.16 0 6.404-6.7 11.97-17.07 14.165a.902.902 0 0 1-.236.026M87.027 135.824c-.344 0-.678-.15-.904-.44a1.16 1.16 0 0 1 .18-1.625c2.66-2.117 4.063-4.562 4.063-7.061 0-.643.526-1.162 1.16-1.162.642 0 1.158.519 1.158 1.162 0 3.231-1.7 6.302-4.933 8.87-.215.173-.47.256-.724.256M129.075 93.03c-13.215 0-23.965 5.735-23.965 12.788 0 6.93 10.98 12.787 23.965 12.787 12.986 0 23.964-5.857 23.964-12.787 0-7.053-10.75-12.787-23.964-12.787m0 27.895c-14.734 0-26.281-6.637-26.281-15.108 0-8.47 11.547-15.106 26.281-15.106 14.732 0 26.282 6.635 26.282 15.106 0 8.47-11.55 15.108-26.282 15.108" fill="#FFF"/>
        <path d="M129.075 98.552c-10.345 0-17.556 3.828-17.556 7.267 0 3.434 7.211 7.259 17.556 7.259 10.343 0 17.557-3.825 17.557-7.259 0-3.44-7.214-7.267-17.557-7.267m0 16.847c-11.142 0-19.875-4.21-19.875-9.58 0-5.378 8.733-9.585 19.875-9.585 11.15 0 19.875 4.207 19.875 9.585 0 5.37-8.725 9.58-19.875 9.58M126.668 132.264h-.063c-13.577-.72-23.811-7.19-23.811-15.046 0-.636.524-1.158 1.16-1.158.64 0 1.156.522 1.156 1.158 0 6.495 9.493 12.084 21.612 12.726a1.16 1.16 0 0 1 1.096 1.223 1.155 1.155 0 0 1-1.15 1.097M112.214 141.21a1.1 1.1 0 0 1-.516-.123c-5.655-2.846-8.905-6.99-8.905-11.374a1.157 1.157 0 1 1 2.316 0c0 3.475 2.781 6.867 7.631 9.304.57.286.795.983.514 1.559a1.165 1.165 0 0 1-1.04.633M142.081 28.592a3.56 3.56 0 0 0 0 5.049c1.349 1.346 3.691 1.346 5.04 0a3.563 3.563 0 0 0 0-5.05 3.556 3.556 0 0 0-5.04 0zm-.66 5.706a4.504 4.504 0 0 1 0-6.36c1.699-1.702 4.658-1.702 6.36 0 1.755 1.755 1.747 4.604 0 6.36a4.499 4.499 0 0 1-6.36 0zM201.286 92.52a3.576 3.576 0 0 0 0 5.05 3.57 3.57 0 1 0 0-5.05m-.66 5.702c-1.747-1.748-1.747-4.606 0-6.36a4.508 4.508 0 0 1 6.363 0 4.497 4.497 0 1 1-6.363 6.36M115.763 47.715c-13.593 0-24.654 6.053-24.654 13.486 0 7.437 11.06 13.484 24.654 13.484 13.602 0 24.661-6.047 24.661-13.484 0-7.433-11.059-13.486-24.661-13.486m0 27.895c-14.102 0-25.586-6.465-25.586-14.409 0-7.945 11.484-14.41 25.586-14.41 14.109 0 25.585 6.465 25.585 14.41 0 7.944-11.476 14.41-25.585 14.41" fill="#FFF"/>
        <path d="M115.763 53.242c-9.892 0-18.248 3.647-18.248 7.96 0 4.316 8.356 7.957 18.248 7.957 9.9 0 18.255-3.641 18.255-7.958 0-4.312-8.356-7.96-18.255-7.96m0 16.847c-10.753 0-19.177-3.905-19.177-8.887 0-4.983 8.424-8.888 19.177-8.888 10.76 0 19.186 3.905 19.186 8.888 0 4.982-8.426 8.887-19.186 8.887M115.763 87.015c-14.102 0-25.586-6.468-25.586-14.412a.467.467 0 0 1 .932 0c0 7.437 11.06 13.484 24.654 13.484 13.602 0 24.661-6.047 24.661-13.484 0-.256.208-.464.461-.464s.463.208.463.464c0 7.944-11.476 14.412-25.585 14.412M101.536 97.058a.404.404 0 0 1-.164-.032c-2.273-.87-4.27-1.929-5.936-3.156a.46.46 0 0 1-.1-.648.47.47 0 0 1 .652-.1c1.602 1.178 3.52 2.201 5.72 3.039a.464.464 0 0 1-.172.897M140.188 88.832a.53.53 0 0 1-.18-.036.47.47 0 0 1-.245-.611 7.732 7.732 0 0 0 .66-3.09c0-.255.21-.463.462-.463.253 0 .462.208.462.464 0 1.178-.243 2.34-.733 3.455a.455.455 0 0 1-.426.281M99.925 108.88a.486.486 0 0 1-.192-.04c-1.79-.81-3.374-1.75-4.714-2.79a.456.456 0 0 1-.08-.652.452.452 0 0 1 .642-.081c1.284 1 2.815 1.9 4.534 2.677.235.107.334.38.235.616a.484.484 0 0 1-.425.27M99.925 121.374a.45.45 0 0 1-.192-.04c-1.782-.807-3.374-1.744-4.714-2.793a.448.448 0 0 1-.08-.646.458.458 0 0 1 .642-.087c1.294 1.006 2.815 1.903 4.534 2.683a.465.465 0 0 1 .235.612.473.473 0 0 1-.425.271M99.925 133.867a.426.426 0 0 1-.192-.041c-1.6-.725-3.05-1.559-4.296-2.475a.457.457 0 0 1-.101-.646.453.453 0 0 1 .643-.099c1.202.877 2.589 1.68 4.136 2.378.235.103.334.38.235.61a.475.475 0 0 1-.425.273M66.411 76.82c-13.603 0-24.662 6.046-24.662 13.485 0 7.433 11.06 13.484 24.662 13.484 13.595 0 24.654-6.05 24.654-13.484 0-7.439-11.06-13.486-24.654-13.486m0 27.893c-14.11 0-25.585-6.463-25.585-14.407 0-7.945 11.476-14.41 25.585-14.41 14.101 0 25.583 6.465 25.583 14.41 0 7.944-11.482 14.407-25.583 14.407" fill="#FFF"/>
        <path d="M66.411 82.346c-10.064 0-18.255 3.57-18.255 7.96 0 4.31 8.355 7.957 18.255 7.957 9.892 0 18.247-3.647 18.247-7.958 0-4.318-8.355-7.96-18.247-7.96m0 16.847c-10.758 0-19.185-3.905-19.185-8.887 0-4.983 8.427-8.888 19.185-8.888 10.752 0 19.177 3.905 19.177 8.888 0 4.982-8.425 8.887-19.177 8.887M66.411 116.115c-14.11 0-25.585-6.465-25.585-14.41 0-.259.21-.466.462-.466.254 0 .461.207.461.467 0 7.433 11.06 13.484 24.662 13.484 13.595 0 24.654-6.051 24.654-13.484a.464.464 0 1 1 .93 0c0 7.944-11.483 14.409-25.584 14.409M75.38 127.693a.458.458 0 0 1-.454-.362.46.46 0 0 1 .355-.553c9.439-2.003 15.784-7.06 15.784-12.579a.465.465 0 0 1 .93 0c0 6.061-6.488 11.356-16.525 13.488-.027.006-.063.006-.09.006M87.027 135.126a.463.463 0 0 1-.29-.824c2.834-2.257 4.327-4.882 4.327-7.605a.466.466 0 1 1 .932 0c0 3.018-1.62 5.893-4.68 8.33a.472.472 0 0 1-.289.1M129.075 92.334c-13.593 0-24.654 6.047-24.654 13.486 0 7.431 11.061 13.484 24.654 13.484s24.662-6.053 24.662-13.484c0-7.439-11.069-13.486-24.662-13.486m0 27.893c-14.109 0-25.585-6.463-25.585-14.407 0-7.946 11.476-14.41 25.585-14.41 14.11 0 25.586 6.464 25.586 14.41 0 7.944-11.477 14.407-25.586 14.407" fill="#FFF"/>
        <path d="M129.075 97.86c-9.892 0-18.255 3.642-18.255 7.96 0 4.31 8.363 7.958 18.255 7.958s18.255-3.648 18.255-7.958c0-4.318-8.363-7.96-18.255-7.96m0 16.844c-10.752 0-19.176-3.902-19.176-8.884 0-4.984 8.424-8.888 19.176-8.888 10.76 0 19.187 3.904 19.187 8.888 0 4.982-8.426 8.884-19.187 8.884M126.668 131.566h-.03c-13.194-.697-23.148-6.867-23.148-14.347 0-.258.208-.464.463-.464.26 0 .469.206.469.464 0 6.865 9.773 12.761 22.264 13.422a.466.466 0 0 1 .443.486.467.467 0 0 1-.46.44M112.214 140.517a.536.536 0 0 1-.208-.05c-5.412-2.722-8.515-6.64-8.515-10.753a.46.46 0 0 1 .46-.463c.262 0 .472.203.472.463 0 3.748 2.913 7.364 8 9.924a.456.456 0 0 1 .208.623.471.471 0 0 1-.417.256" fill="#FFF"/>
        <path d="M64.493 72.439a.476.476 0 0 1-.416-.246.464.464 0 0 1 .2-.627L85.56 60.24a.454.454 0 0 1 .627.196c.115.226.034.5-.191.623L64.71 72.385a.496.496 0 0 1-.217.054zm40.77 77.554 14.962 19.533 66.69-38.546-15.07-19.461-66.582 38.474zM22.24 131.048l66.581 38.478 15.069-19.464-66.693-38.54-14.957 19.526zm66.698 39.547a.5.5 0 0 1-.236-.063L21.315 131.59a.487.487 0 0 1-.218-.315.443.443 0 0 1 .083-.37l15.322-20.004-13.848-16.557a.453.453 0 0 1-.099-.384.444.444 0 0 1 .235-.321l13.32-7.09a.459.459 0 0 1 .625.196.465.465 0 0 1-.19.625l-12.813 6.815 13.684 16.358c.01.017.026.037.035.051l67.07 38.765 66.647-38.521-12.038-6.958a.467.467 0 0 1 .471-.806l12.39 7.162 13.585-17.409-38.428-20.442a.465.465 0 0 1 .435-.82L186.5 92.272a.463.463 0 0 1 .144.693l-14.048 18.008 15.377 19.86a.506.506 0 0 1 .091.376.447.447 0 0 1-.227.307l-67.505 39.017a.457.457 0 0 1-.596-.12l-15.133-19.764-15.304 19.765a.456.456 0 0 1-.362.182zm15.666 44.71c-.026 0-.054-.007-.091-.01a.477.477 0 0 0-.064-.02v-.004h-.008a.353.353 0 0 1-.073-.036l-67.54-39.007a.47.47 0 0 1-.236-.402l.063-28.174c.01-.259.208-.469.471-.469.253 0 .463.21.463.47l-.065 27.906 66.619 38.474-.01-55.203c0-.26.208-.468.46-.468.254 0 .464.208.464.468l.02 55.203 66.571-38.474-.071-30.045a.465.465 0 0 1 .93 0l.065 30.312a.485.485 0 0 1-.228.402l-67.503 39.01a.516.516 0 0 1-.237.066zM112.224 31.594h-.01a.464.464 0 0 1-.451-.485l.08-2.265c-1.746-.153-3.358-.828-4.57-1.92-1.357-1.205-2.063-2.781-2.01-4.434.01-.25.218-.45.473-.45h.008a.47.47 0 0 1 .453.481c-.056 1.372.55 2.695 1.693 3.715 1.155 1.041 2.74 1.647 4.442 1.713 1.702.075 3.322-.436 4.56-1.4 1.214-.939 1.9-2.212 1.948-3.584.099-2.808-1.928-4.58-6.209-5.414-4.09-.796-6.47-2.817-6.38-5.407.045-1.41.796-2.7 2.118-3.633 1.167-.83 2.652-1.291 4.225-1.323l.083-2.27a.462.462 0 0 1 .46-.443h.02a.464.464 0 0 1 .451.475l-.08 2.27c3.43.308 6.08 2.655 5.983 5.391a.47.47 0 0 1-.463.448h-.02a.467.467 0 0 1-.441-.481c.081-2.347-2.41-4.343-5.558-4.458-1.54-.043-3.013.355-4.128 1.147-1.076.76-1.692 1.794-1.727 2.913-.073 2.092 2.037 3.76 5.63 4.457 4.733.928 7.077 3.067 6.966 6.36-.062 1.653-.876 3.175-2.307 4.284-1.293 1.006-2.94 1.563-4.697 1.594l-.072 2.271a.47.47 0 0 1-.47.448m-73.1 34.005a.473.473 0 0 1-.425-.281l-.904-2.075c-1.647.615-3.386.712-4.96.26-1.737-.5-3.06-1.615-3.729-3.121a.475.475 0 0 1 .243-.618.456.456 0 0 1 .608.241c.551 1.254 1.665 2.182 3.14 2.61 1.504.43 3.185.293 4.744-.396h.008v-.004c1.556-.689 2.805-1.833 3.493-3.235.688-1.37.752-2.822.2-4.075-1.132-2.578-3.729-3.285-7.946-2.174-4.01 1.059-7.05.275-8.092-2.093-1.102-2.509.489-5.667 3.566-7.225l-.913-2.08c-.101-.235 0-.512.235-.611a.47.47 0 0 1 .615.235l.914 2.08c1.476-.563 3.032-.68 4.417-.345 1.564.384 2.743 1.3 3.313 2.592a.474.474 0 0 1-.235.612.468.468 0 0 1-.618-.242c-.44-1.014-1.392-1.748-2.678-2.06-1.321-.318-2.842-.156-4.254.466h-.008c-2.878 1.273-4.453 4.053-3.501 6.202.84 1.914 3.455 2.504 7.004 1.572 4.668-1.224 7.7-.323 9.031 2.695.66 1.512.588 3.239-.217 4.864-.724 1.468-1.972 2.685-3.539 3.473l.916 2.081c.107.23 0 .507-.236.61a.486.486 0 0 1-.191.042m122.341 5.675a.46.46 0 0 1-.39-.715l1.22-1.907c-3.065-2.223-4.151-6.092-2.395-8.825a.466.466 0 0 1 .641-.14.473.473 0 0 1 .137.64c-1.549 2.413-.427 5.915 2.506 7.808 2.931 1.89 6.58 1.464 8.135-.95 1.522-2.36.68-4.924-2.569-7.831-3.103-2.778-4.118-5.736-2.724-7.916 1.484-2.295 4.987-2.713 7.991-1.004l1.22-1.907a.47.47 0 0 1 .646-.14.453.453 0 0 1 .134.637l-1.22 1.913c2.795 2.02 3.873 5.39 2.39 7.69a.46.46 0 0 1-.636.14.468.468 0 0 1-.144-.643c1.266-1.97.152-4.964-2.49-6.672h-.008c-2.65-1.707-5.83-1.485-7.103.489-1.134 1.764-.174 4.277 2.56 6.718 3.593 3.217 4.515 6.257 2.73 9.029-1.754 2.734-5.725 3.346-9.02 1.467l-1.221 1.907a.468.468 0 0 1-.39.212M191.027 68.76c-.184-3.54-.995-6.262.656-8.058a2.368 2.368 0 0 1 3.341-.136c.82.756.944 1.503.53 2.97-.045.188.133.35.3.28 1.429-.536 2.18-.474 3.003.284.958.883 1.033 2.396.15 3.356-1.665 1.782-4.43 1.184-7.98 1.303m8.145-5.001c-.971-.897-1.907-.897-3.064-.521.28-1.184.204-2.117-.77-3.014a2.824 2.824 0 0 0-3.997.165c-.643.699-1.003 1.556-1.1 2.708-.156 1.654.242 3.642.335 5.933a.24.24 0 0 0 .247.227c3.68-.152 6.687.543 8.527-1.459 1.044-1.19.971-2.98-.178-4.04" fill="#FFF"/>
        <path d="M194.521 61.112a1.625 1.625 0 0 0-2.292.093c-1.046 1.139-.882 2.832-.653 5.176.052.519.103 1.06.145 1.62.587-.006 1.153.002 1.693.01 2.324.035 4.003.06 5.052-1.061.603-.656.553-1.69-.111-2.303-.512-.472-.9-.638-2.241-.137a.935.935 0 0 1-.958-.162l-.017-.014-.058.018.014-.06a.976.976 0 0 1-.263-.926c.398-1.41.2-1.782-.31-2.254m-4.372 8.627a.968.968 0 0 1-.314-.68c-.036-.88-.12-1.712-.196-2.498-.123-1.263-.24-2.455-.137-3.536.11-1.283.532-2.313 1.294-3.14a3.574 3.574 0 0 1 5.046-.208c.925.855 1.175 1.75 1.151 2.598.843-.093 1.754.083 2.68.936 1.454 1.34 1.557 3.57.234 5.077-1.632 1.774-3.91 1.738-6.55 1.699-.79-.012-1.627-.026-2.504.01l-.306.012-.396-.268s-.002 0-.002-.002M65.04 60.755c-3.521-.362-6.334.018-7.85-1.893a2.37 2.37 0 0 1 .379-3.324c.874-.695 1.63-.701 3.014-.066.176.074.366-.077.32-.255-.306-1.493-.13-2.23.745-2.925 1.02-.811 2.523-.653 3.334.369 1.504 1.922.487 4.564.058 8.094m-3.681-8.827c-1.035.824-1.181 1.749-.987 2.95-1.126-.46-2.06-.526-3.094.295a2.834 2.834 0 0 0-.453 3.98c.592.745 1.383 1.232 2.504 1.507 1.608.408 3.632.32 5.907.582a.24.24 0 0 0 .263-.21c.417-3.665 1.566-6.53-.125-8.658-1.015-1.216-2.793-1.42-4.015-.446" fill="#FFF"/>
        <path d="M58.03 56.12c-.7.556-.816 1.58-.26 2.281.963 1.212 2.66 1.309 5.008 1.444.518.03 1.06.06 1.62.106.085-.582.18-1.14.27-1.673.392-2.293.677-3.95-.268-5.16-.554-.697-1.583-.807-2.29-.243-.545.431-.768.79-.481 2.194.083.315-.032.68-.307.922a.128.128 0 0 0-.018.016l.01.06-.055-.024a.98.98 0 0 1-.958.117c-1.329-.61-1.728-.472-2.27-.04m7.842 5.653a.977.977 0 0 1-.722.206c-.872-.099-1.707-.147-2.494-.192-1.266-.073-2.46-.14-3.51-.408-1.25-.305-2.202-.883-2.903-1.764a3.58 3.58 0 0 1 .574-5.022c.985-.786 1.909-.893 2.742-.738.037-.848.352-1.725 1.337-2.509 1.545-1.23 3.762-.988 5.046.553 1.499 1.887 1.113 4.134.668 6.738-.134.782-.277 1.608-.376 2.48l-.035.304-.327.35v.002M77.456 36.152c-3.456-.774-6.292-.727-7.574-2.802a2.37 2.37 0 0 1 .766-3.257c.95-.588 1.7-.505 3.002.289.166.093.372-.034.348-.216-.13-1.518.133-2.23 1.082-2.817 1.108-.685 2.584-.35 3.268.758 1.268 2.085-.051 4.59-.892 8.045m-2.62-9.2c-1.124.698-1.378 1.598-1.326 2.814-1.064-.588-1.982-.764-3.108-.07a2.833 2.833 0 0 0-.915 3.9c.498.807 1.228 1.386 2.308 1.79 1.55.596 3.57.746 5.8 1.273.126.03.253-.05.284-.176.845-3.592 2.32-6.303.892-8.616-.864-1.326-2.607-1.738-3.936-.914" fill="#FFF"/>
        <path d="M71.039 30.725a1.626 1.626 0 0 0-.526 2.236c.813 1.316 2.486 1.611 4.802 2.021.512.091 1.047.184 1.598.295.153-.566.313-1.109.465-1.627.659-2.232 1.134-3.846.338-5.158a1.632 1.632 0 0 0-2.247-.511c-.589.366-.854.695-.733 2.122.045.323-.111.674-.414.882l-.018.011.002.062-.053-.03a.982.982 0 0 1-.963.004c-1.25-.762-1.662-.671-2.251-.307m7.124 6.536a.97.97 0 0 1-.74.12c-.854-.203-1.679-.347-2.456-.484-1.246-.222-2.425-.43-3.438-.818-1.206-.451-2.083-1.136-2.674-2.093a3.58 3.58 0 0 1 1.16-4.92c1.07-.663 1.999-.661 2.808-.412.136-.836.552-1.67 1.622-2.332 1.68-1.04 3.853-.539 4.947 1.14 1.268 2.051.62 4.237-.127 6.772-.225.76-.465 1.564-.664 2.417l-.072.3-.364.308-.002.002M9.973 98.049c-3.538.108-6.274.86-8.032-.832a2.372 2.372 0 0 1-.066-3.344c.776-.806 1.524-.913 2.98-.468.185.05.353-.124.284-.295-.502-1.44-.425-2.192.348-2.997.904-.941 2.417-.985 3.355-.08 1.745 1.705 1.088 4.46 1.131 8.016m-4.82-8.26c-.916.953-.938 1.89-.585 3.056-1.177-.307-2.111-.25-3.027.705a2.833 2.833 0 0 0 .077 4.004c.685.657 1.535 1.037 2.682 1.16 1.65.19 3.644-.165 5.933-.21a.233.233 0 0 0 .231-.242c-.071-3.686.686-6.68-1.272-8.565-1.167-1.071-2.955-1.036-4.039.093" fill="#FFF"/>
        <path d="M2.411 94.387a1.629 1.629 0 0 0 .044 2.296c1.115 1.072 2.81.943 5.154.763.52-.038 1.06-.08 1.622-.11.006-.587.026-1.151.048-1.692.083-2.327.144-4.006-.953-5.079-.641-.618-1.676-.592-2.303.062-.48.5-.657.885-.184 2.239.123.3.06.68-.182.954l-.016.018.018.058-.06-.016a.976.976 0 0 1-.93.245c-1.401-.43-1.777-.24-2.258.262m8.524 4.56a.98.98 0 0 1-.689.3c-.878.016-1.71.082-2.498.141-1.264.097-2.457.188-3.533.062-1.281-.137-2.3-.583-3.11-1.363a3.579 3.579 0 0 1-.098-5.053c.872-.909 1.772-1.138 2.619-1.097-.075-.845.12-1.754.993-2.663 1.369-1.423 3.598-1.479 5.075-.125 1.735 1.672 1.652 3.953 1.557 6.592-.03.792-.061 1.63-.045 2.507l.005.307-.274.39-.002.002M9.967 54.521c-3.538.117-6.272.873-8.034-.814a2.373 2.373 0 0 1-.071-3.346c.771-.806 1.519-.915 2.977-.473.185.05.352-.125.282-.295-.504-1.44-.429-2.192.345-2.998.9-.943 2.413-.988 3.354-.087 1.749 1.7 1.096 4.457 1.147 8.013M5.13 46.272c-.914.955-.933 1.891-.58 3.055-1.176-.303-2.11-.243-3.024.713a2.831 2.831 0 0 0 .087 4.004c.685.657 1.535 1.033 2.685 1.154 1.647.188 3.641-.172 5.93-.222a.237.237 0 0 0 .233-.241c-.081-3.689.67-6.683-1.292-8.564-1.169-1.069-2.957-1.03-4.039.101" fill="#FFF"/>
        <path d="M2.397 50.875a1.624 1.624 0 0 0 .05 2.295c1.116 1.071 2.81.939 5.157.754.518-.04 1.058-.083 1.62-.112.005-.588.023-1.155.043-1.693.08-2.327.137-4.008-.963-5.08-.643-.615-1.678-.585-2.303.068-.48.503-.654.887-.18 2.24a.934.934 0 0 1-.18.956c-.004.006-.01.012-.013.018l.015.057-.057-.016a.98.98 0 0 1-.932.246c-1.4-.426-1.778-.234-2.257.267m8.534 4.542a.973.973 0 0 1-.689.301c-.876.02-1.71.085-2.498.147-1.262.099-2.455.194-3.533.07-1.28-.133-2.3-.577-3.111-1.355a3.58 3.58 0 0 1-.11-5.053c.871-.911 1.77-1.143 2.616-1.103-.075-.846.117-1.756.987-2.665 1.367-1.428 3.596-1.49 5.076-.137 1.74 1.667 1.661 3.948 1.57 6.588-.028.794-.057 1.631-.04 2.508l.008.305-.276.392v.002M165.948 35.485c-.184-3.538-.995-6.26.657-8.056a2.368 2.368 0 0 1 3.34-.137c.821.756.944 1.503.53 2.97-.045.188.133.35.301.28 1.428-.535 2.18-.474 3.003.284.957.883 1.032 2.396.15 3.356-1.665 1.783-4.43 1.185-7.981 1.303m8.145-5.001c-.971-.897-1.907-.897-3.064-.521.281-1.184.204-2.117-.77-3.014a2.824 2.824 0 0 0-3.997.165c-.643.699-1.003 1.556-1.1 2.708-.156 1.654.242 3.642.335 5.933a.24.24 0 0 0 .247.227c3.681-.152 6.688.543 8.527-1.459 1.045-1.19.971-2.98-.178-4.04" fill="#FFF"/>
        <path d="M169.443 27.839a1.625 1.625 0 0 0-2.293.093c-1.046 1.138-.882 2.831-.652 5.176.05.518.102 1.059.144 1.62.587-.007 1.153.001 1.693.01 2.324.035 4.004.059 5.052-1.062.603-.656.554-1.69-.11-2.303-.513-.471-.9-.638-2.242-.137a.935.935 0 0 1-.957-.162l-.018-.014-.057.018.013-.06a.976.976 0 0 1-.263-.926c.398-1.41.2-1.782-.31-2.253m-4.372 8.627a.968.968 0 0 1-.314-.681c-.036-.88-.119-1.711-.196-2.497-.123-1.264-.24-2.456-.136-3.537.108-1.283.532-2.312 1.293-3.14a3.574 3.574 0 0 1 5.046-.208c.926.856 1.175 1.75 1.151 2.598.843-.093 1.755.083 2.68.936 1.454 1.341 1.557 3.57.234 5.077-1.632 1.774-3.91 1.739-6.55 1.7-.79-.013-1.627-.027-2.503.01l-.307.011-.396-.267s-.002 0-.002-.002M142.863 10.424c-1.076-3.376-2.548-5.803-1.406-7.96a2.365 2.365 0 0 1 3.196-.98c.987.523 1.296 1.214 1.266 2.739.004.192.218.305.362.192 1.244-.878 1.99-1.01 2.975-.485 1.151.61 1.608 2.055.997 3.207-1.16 2.147-3.986 2.27-7.39 3.287m6.613-6.906c-1.17-.62-2.073-.384-3.096.275-.03-1.218-.34-2.1-1.51-2.72a2.824 2.824 0 0 0-3.823 1.174c-.445.839-.575 1.76-.38 2.898.27 1.64 1.158 3.461 1.828 5.653.04.127.17.196.297.159 3.523-1.081 6.606-1.174 7.88-3.576.708-1.418.184-3.13-1.196-3.863" fill="#FFF"/>
        <path d="M144.306 2.14a1.623 1.623 0 0 0-2.194.673c-.724 1.366-.134 2.962.68 5.172.18.487.369.996.55 1.529.568-.155 1.116-.29 1.64-.418 2.257-.559 3.887-.96 4.619-2.313.415-.784.107-1.774-.692-2.198-.613-.326-1.03-.388-2.202.436-.255.202-.637.243-.967.089-.008-.004-.014-.008-.022-.01l-.05.032-.001-.062a.979.979 0 0 1-.49-.83c.027-1.464-.258-1.775-.871-2.1m-2.041 9.455a.968.968 0 0 1-.477-.579 43.454 43.454 0 0 0-.823-2.366c-.44-1.19-.854-2.314-1.029-3.386-.22-1.269-.07-2.372.455-3.366a3.571 3.571 0 0 1 4.829-1.48c1.111.59 1.58 1.393 1.772 2.219.791-.303 1.719-.366 2.83.226 1.745.926 2.41 3.057 1.514 4.85-1.13 2.13-3.343 2.674-5.905 3.307-.77.189-1.584.389-2.42.646l-.293.089-.453-.158v-.002M86.192 12.842c-3.236-1.435-6.03-1.944-6.88-4.231a2.37 2.37 0 0 1 1.389-3.044c1.046-.392 1.766-.164 2.886.87.146.124.373.041.383-.143.172-1.515.566-2.16 1.612-2.55 1.223-.456 2.603.162 3.058 1.384.835 2.293-.95 4.49-2.448 7.714m-.772-9.534c-1.238.462-1.661 1.295-1.85 2.499-.927-.786-1.793-1.139-3.032-.677a2.832 2.832 0 0 0-1.663 3.643c.332.891.934 1.6 1.917 2.208 1.402.887 3.352 1.431 5.435 2.384.12.055.26.004.315-.117 1.53-3.354 3.509-5.724 2.56-8.273-.588-1.47-2.216-2.215-3.682-1.667" fill="#FFF"/>
        <path d="M80.96 6.263a1.626 1.626 0 0 0-.953 2.089c.54 1.449 2.124 2.067 4.316 2.924.482.188.989.386 1.507.604.261-.529.524-1.03.775-1.507 1.082-2.06 1.864-3.548 1.34-4.991-.311-.834-1.255-1.258-2.103-.941-.65.242-.973.513-1.134 1.936a.936.936 0 0 1-.577.783c-.008.004-.016.006-.022.01l-.01.059-.045-.04a.984.984 0 0 1-.946-.184c-1.076-.992-1.499-.984-2.148-.742m5.709 7.805a.975.975 0 0 1-.75-.028c-.8-.364-1.578-.67-2.312-.954-1.181-.462-2.297-.897-3.213-1.477-1.095-.68-1.82-1.523-2.213-2.576a3.578 3.578 0 0 1 2.099-4.598c1.179-.442 2.09-.257 2.834.147.299-.794.869-1.529 2.047-1.97 1.852-.692 3.883.225 4.629 2.088.843 2.26-.22 4.277-1.45 6.616-.37.7-.76 1.441-1.123 2.241l-.129.277-.417.234h-.002" fill="#FFF"/>
    </g>
</svg>
