<svg width="61" height="60" viewBox="0 0 61 60" xmlns="http://www.w3.org/2000/svg">
    <g fill="none" fill-rule="evenodd">
        <path d="M30.063 0c16.604 0 30.062 13.43 30.062 30S46.667 60 30.062 60C13.459 60 0 46.57 0 30S13.458 0 30.063 0z" fill="#FFF" opacity=".4"/>
        <path d="m16.522 30 .022 7.933 6.754 3.966v4.644l-10.707-6.267V27.68L16.522 30zm0-7.933v4.623l-3.933-2.322v-4.623l3.933-2.322 3.953 2.322-3.953 2.322zm9.597-2.322 3.934-2.322 3.953 2.322-3.953 2.322-3.934-2.322z" fill="#000" fill-rule="nonzero"/>
        <path d="M19.365 36.288v-4.644l3.933 2.322v4.623l-3.933-2.3zm6.754 7.275 3.934 2.322 3.953-2.322v4.622l-3.953 2.322-3.934-2.322v-4.623zm13.528-23.818 3.934-2.322 3.953 2.322v4.623L43.58 26.69v-4.623l-3.934-2.322zm3.934 18.188L43.603 30l3.933-2.322v12.596L36.83 46.541v-4.644l6.752-3.964z" fill="#000" fill-rule="nonzero"/>
        <path fill="#000" fill-rule="nonzero" d="m40.76 36.288-3.933 2.3v-4.622l3.933-2.322z"/>
        <path d="m40.76 23.712.022 4.644-6.774 3.966v7.952l-3.933 2.3-3.934-2.3v-7.952l-6.774-3.966v-4.644l3.95-2.323 6.733 3.986 6.774-3.986 3.953 2.323h-.017zm-21.395-7.93 10.688-6.29 10.707 6.29-3.933 2.321-6.774-3.985-6.755 3.985-3.933-2.322z" fill="#000" fill-rule="nonzero"/>
    </g>
</svg>
