<svg width="62" height="60" viewBox="0 0 62 60" xmlns="http://www.w3.org/2000/svg">
    <g fill="none" fill-rule="evenodd">
        <path d="M31 0c16.604 0 30.063 13.43 30.063 30S47.603 60 31 60 .937 46.57.937 30 14.396 0 31 0z" fill="#FFF" opacity=".4"/>
        <g fill-rule="nonzero">
            <path fill="#343434" d="m30.996 9.23-.278.947v27.466l.278.279 12.715-7.537z"/>
            <path fill="#8C8C8C" d="M30.996 9.23 18.281 30.386l12.715 7.537V24.59z"/>
            <path fill="#3C3C3B" d="m30.996 40.335-.156.192v9.784l.156.458L43.72 32.803z"/>
            <path fill="#8C8C8C" d="M30.996 50.77V40.334l-12.715-7.532z"/>
            <path fill="#141414" d="m30.996 37.922 12.715-7.537-12.715-5.795z"/>
            <path fill="#393939" d="m18.281 30.385 12.715 7.537V24.59z"/>
        </g>
    </g>
</svg>
