<?xml version="1.0" encoding="UTF-8"?>
<svg width="16px" height="16px" viewBox="0 0 16 16" version="1.1" xmlns="http://www.w3.org/2000/svg"
    xmlns:xlink="http://www.w3.org/1999/xlink">
    <title>Group</title>
    <g id="logo" stroke="none" stroke-width="1" fill="none" fill-rule="evenodd">
        <g id="Group">

            <g id="Group-4-Copy-5" transform="translate(1.000000, 2.000000)" fill="currentColor">
                <path
                    d="M0.000530986038,3.56913791 L0,8.35602505 L7.00005531,13 L14,8.35602505 L13.9996239,3.56935802 L12.4562908,2.54546578 L11.8019833,2.97437844 L12.9877636,3.76128691 L10.3192269,5.53178695 L7.65033621,3.76106681 L9.57274904,2.48588419 L8.92348586,2.05393412 L6.99978982,3.32986509 L3.68048547,1.12794323 L0.000530986038,3.56913791 Z M1.01234701,3.76128691 L3.68048547,1.99056677 L6.34915493,3.76106681 L3.68026423,5.53136876 L1.01234701,3.76128691 Z M4.33083275,5.96276857 L6.99963495,4.19251064 L9.66865839,5.96320877 L7.00005531,7.73373083 L4.33083275,5.96276857 Z M10.6804965,6.15557787 L13.2777484,4.43264186 L13.2780139,7.97172706 L10.6804965,9.69530137 L10.6804965,6.15557787 Z M0.721986141,7.97172706 L0.722318007,4.43283996 L3.31930435,6.15535777 L3.31952559,9.69508126 L0.721986141,7.97172706 Z M4.04151173,10.173869 L4.04126836,6.63412352 L6.6390733,8.35752175 L6.6390733,11.8974433 L4.04151173,10.173869 Z M7.36099307,8.35752175 L9.95857677,6.63434362 L9.95857677,10.173869 L7.36099307,11.8974433 L7.36099307,8.35752175 Z"
                    id="Fill-1"></path>
                <polygon id="Fill-2"
                    points="10.8269912 4.46874078 11.537539 3.98295378 10.0584331 3.0261046 9.34764193 3.51164949">
                </polygon>
                <polygon id="Fill-3"
                    points="11.8752372 0 11.0284694 0.561634132 10.1818343 0 9.2431837 0.622668401 9.24305096 1.84363992 11.0285136 3.02814054 12.8139763 1.84363992 12.8138878 0.622712421">
                </polygon>
            </g>
        </g>
    </g>
</svg>