<svg width="62" height="60" viewBox="0 0 62 60" xmlns="http://www.w3.org/2000/svg">
    <g fill="none" fill-rule="evenodd">
        <path d="M30.938 0C47.541 0 61 13.43 61 30S47.542 60 30.937 60C14.334 60 .875 46.57.875 30S14.333 0 30.938 0z" fill="#FFF" opacity=".4"/>
        <g fill="#000">
            <path d="M14.75 13.846c5.617 1.7 11.09 2.55 16.416 2.55 5.326 0 10.646-.85 15.959-2.55V27.45A50.798 50.798 0 0 1 31.165 30c-5.464 0-10.936-.85-16.415-2.55V13.845z"/>
            <path d="M47.125 46.154c-5.617-1.7-11.09-2.55-16.416-2.55-5.326 0-10.646.85-15.959 2.55V32.55A50.798 50.798 0 0 1 30.71 30c5.464 0 10.936.85 16.415 2.55v13.604z"/>
        </g>
    </g>
</svg>
