<?xml version="1.0" encoding="UTF-8"?>
<svg width="139px" height="24px" viewBox="0 0 139 24" version="1.1" xmlns="http://www.w3.org/2000/svg" xmlns:xlink="http://www.w3.org/1999/xlink">
    <title>heading title copy</title>
    <g id="Cover-fb--tw" stroke="none" stroke-width="1" fill="none" fill-rule="evenodd">
        <g id="Coming-soon-1" transform="translate(-640.000000, -102.000000)" fill-rule="nonzero">
            <g id="heading-title-copy" transform="translate(640.270286, 102.452452)">
                <path d="M16.6023389,7.85804651 C16.0312027,6.65669103 15.2040399,5.72613289 14.1208505,5.06637209 C13.0376611,4.4066113 11.7772226,4.0767309 10.3395349,4.0767309 C8.90184718,4.0767309 7.60694352,4.4066113 6.45482392,5.06637209 C5.30270432,5.72613289 4.39676412,6.67146179 3.73700332,7.9023588 C3.07724252,9.13325581 2.74736213,10.5561728 2.74736213,12.1711096 C2.74736213,13.7860465 3.07724252,15.2040399 3.73700332,16.4250897 C4.39676412,17.6461395 5.30270432,18.5865449 6.45482392,19.2463056 C7.60694352,19.9060664 8.90184718,20.2359468 10.3395349,20.2359468 C12.3483588,20.2359468 14.0026844,19.6352691 15.3025116,18.4339136 C16.6023389,17.2325581 17.3605714,15.6077741 17.5772093,13.5595615 L9.36466445,13.5595615 L9.36466445,11.3734884 L20.4427375,11.3734884 L20.4427375,13.4413953 C20.2851827,15.1351096 19.7534352,16.6860399 18.847495,18.094186 C17.9415548,19.5023322 16.7500465,20.6150631 15.2729701,21.4323787 C13.7958937,22.2496944 12.1514153,22.6583522 10.3395349,22.6583522 C8.42918272,22.6583522 6.68623256,22.2103056 5.11068439,21.3142126 C3.53513621,20.4181196 2.28946844,19.1724518 1.37368106,17.5772093 C0.457893688,15.9819668 2.27373675e-13,14.1799336 2.27373675e-13,12.1711096 C2.27373675e-13,10.1622857 0.457893688,8.3553289 1.37368106,6.7502392 C2.28946844,5.1451495 3.53513621,3.89455814 5.11068439,2.99846512 C6.68623256,2.10237209 8.42918272,1.65432558 10.3395349,1.65432558 C12.525608,1.65432558 14.4605781,2.19592027 16.1444452,3.27910963 C17.8283123,4.362299 19.0542857,5.8886113 19.8223654,7.85804651 L16.6023389,7.85804651 Z" id="Path" fill="#FFFFFF"></path>
                <path d="M25.3761728,3.6631495 C24.8641196,3.6631495 24.4308439,3.48590033 24.0763455,3.13140199 C23.7218472,2.77690365 23.544598,2.34362791 23.544598,1.83157475 C23.544598,1.31952159 23.7218472,0.886245847 24.0763455,0.531747508 C24.4308439,0.177249169 24.8641196,0 25.3761728,0 C25.8685316,0 26.2870365,0.177249169 26.6316877,0.531747508 C26.9763389,0.886245847 27.1486645,1.31952159 27.1486645,1.83157475 C27.1486645,2.34362791 26.9763389,2.77690365 26.6316877,3.13140199 C26.2870365,3.48590033 25.8685316,3.6631495 25.3761728,3.6631495 Z M26.676,6.29234551 L26.676,22.481103 L23.9877209,22.481103 L23.9877209,6.29234551 L26.676,6.29234551 Z" id="Shape" fill="#FFFFFF"></path>
                <polygon id="Path" fill="#FFFFFF" points="37.2814086 19.9996146 42.3034684 6.29234551 45.1689967 6.29234551 38.8175681 22.481103 35.6861661 22.481103 29.3347375 6.29234551 32.2298073 6.29234551"></polygon>
                <path d="M62.5984983,13.7663522 C62.5984983,14.2784053 62.5689568,14.82 62.5098738,15.3911362 L49.5706844,15.3911362 C49.6691561,16.9863787 50.2156744,18.2320465 51.2102392,19.1281395 C52.204804,20.0242326 53.4110831,20.4722791 54.8290764,20.4722791 C55.9910432,20.4722791 56.96099,20.2014817 57.7389169,19.659887 C58.5168439,19.1182924 59.0633621,18.3945249 59.3784718,17.4885847 L62.2735415,17.4885847 C61.8402658,19.0444385 60.9737143,20.3098007 59.673887,21.2846711 C58.3740598,22.2595415 56.7591229,22.7469767 54.8290764,22.7469767 C53.2929169,22.7469767 51.9192359,22.4023256 50.7080332,21.7130233 C49.4968306,21.0237209 48.5465781,20.0439269 47.8572757,18.7736412 C47.1679734,17.5033555 46.8233223,16.0312027 46.8233223,14.3571827 C46.8233223,12.6831628 47.1581262,11.2159336 47.8277342,9.95549502 C48.4973422,8.69505648 49.4377475,7.72510963 50.6489502,7.04565449 C51.8601528,6.36619934 53.2535282,6.02647176 54.8290764,6.02647176 C56.3652359,6.02647176 57.7241462,6.36127575 58.9058073,7.03088372 C60.0874684,7.70049169 60.9983322,8.62120266 61.6383987,9.79301661 C62.2784651,10.9648306 62.5984983,12.2892757 62.5984983,13.7663522 Z M59.8215947,13.2050631 C59.8215947,12.1809568 59.5951096,11.2996346 59.1421395,10.5610963 C58.6891694,9.82255814 58.0737209,9.2612691 57.295794,8.87722924 C56.5178671,8.49318937 55.6562392,8.30116944 54.7109103,8.30116944 C53.352,8.30116944 52.1949568,8.73444518 51.2397807,9.60099668 C50.2846047,10.4675482 49.7380864,11.6689037 49.6002259,13.2050631 L59.8215947,13.2050631 Z" id="Shape" fill="#FFFFFF"></path>
                <polygon id="Path" fill="#FFD900" points="79.2008372 1.74295017 79.2008372 5.79013953 70.7519601 5.79013953 70.7519601 10.1622857 77.0738472 10.1622857 77.0738472 14.091309 70.7519601 14.091309 70.7519601 22.481103 65.7003588 22.481103 65.7003588 1.74295017"></polygon>
                <path d="M98.1369568,5.99693023 L98.1369568,22.481103 L93.0853555,22.481103 L93.0853555,20.2359468 C92.5733023,20.9646379 91.8790764,21.5505449 91.0026777,21.9936678 C90.1262791,22.4367907 89.1563322,22.6583522 88.0928372,22.6583522 C86.8323987,22.6583522 85.7196678,22.3777076 84.7546445,21.8164186 C83.7896213,21.2551296 83.0412359,20.4427375 82.5094884,19.3792425 C81.9777409,18.3157475 81.7118671,17.0651561 81.7118671,15.6274684 L81.7118671,5.99693023 L86.7339269,5.99693023 L86.7339269,14.9480133 C86.7339269,16.050897 87.019495,16.9076013 87.5906312,17.5181262 C88.1617674,18.1286512 88.9298472,18.4339136 89.8948704,18.4339136 C90.879588,18.4339136 91.657515,18.1286512 92.2286512,17.5181262 C92.7997874,16.9076013 93.0853555,16.050897 93.0853555,14.9480133 L93.0853555,5.99693023 L98.1369568,5.99693023 Z" id="Path" fill="#FFD900"></path>
                <path d="M111.814684,5.81968106 C113.744731,5.81968106 115.285814,6.44497674 116.437934,7.69556811 C117.590053,8.94615947 118.166113,10.6644917 118.166113,12.8505648 L118.166113,22.481103 L113.144053,22.481103 L113.144053,13.5300199 C113.144053,12.4271362 112.858485,11.5704319 112.287349,10.959907 C111.716213,10.3493821 110.948133,10.0441196 109.98311,10.0441196 C109.018086,10.0441196 108.250007,10.3493821 107.67887,10.959907 C107.107734,11.5704319 106.822166,12.4271362 106.822166,13.5300199 L106.822166,22.481103 L101.770565,22.481103 L101.770565,5.99693023 L106.822166,5.99693023 L106.822166,8.18300332 C107.334219,7.45431229 108.023522,6.87825249 108.890073,6.45482392 C109.756625,6.03139535 110.731495,5.81968106 111.814684,5.81968106 Z" id="Path" fill="#FFD900"></path>
                <path d="M120.677143,14.2094751 C120.677143,12.5157608 120.997176,11.0288372 121.637243,9.74870432 C122.277309,8.46857143 123.148784,7.48385382 124.251668,6.7945515 C125.354551,6.10524917 126.585449,5.76059801 127.944359,5.76059801 C129.027548,5.76059801 130.017189,5.98708306 130.913282,6.44005316 C131.809375,6.89302326 132.513449,7.50354817 133.025502,8.27162791 L133.025502,0.620372093 L138.077103,0.620372093 L138.077103,22.481103 L133.025502,22.481103 L133.025502,20.1177807 C132.552837,20.9055548 131.878306,21.5357741 131.001907,22.0084385 C130.125508,22.481103 129.106326,22.7174352 127.944359,22.7174352 C126.585449,22.7174352 125.354551,22.3678605 124.251668,21.668711 C123.148784,20.9695615 122.277309,19.9749967 121.637243,18.6850166 C120.997176,17.3950365 120.677143,15.9031894 120.677143,14.2094751 Z M133.025502,14.2390166 C133.025502,12.9785781 132.675927,11.9840133 131.976777,11.2553223 C131.277628,10.5266312 130.425847,10.1622857 129.421435,10.1622857 C128.417023,10.1622857 127.565243,10.5217076 126.866093,11.2405515 C126.166944,11.9593953 125.817369,12.9490365 125.817369,14.2094751 C125.817369,15.4699136 126.166944,16.469402 126.866093,17.2079402 C127.565243,17.9464784 128.417023,18.3157475 129.421435,18.3157475 C130.425847,18.3157475 131.277628,17.951402 131.976777,17.222711 C132.675927,16.4940199 133.025502,15.4994551 133.025502,14.2390166 Z" id="Shape" fill="#FFD900"></path>
            </g>
        </g>
    </g>
</svg>