<svg width="32" height="32" viewBox="0 0 32 32" xmlns="http://www.w3.org/2000/svg">
    <g fill="none" fill-rule="evenodd">
        <path d="M11.806 3.203a6.3 6.3 0 0 1 8.799 1.395 9.543 9.543 0 0 1-.692 12.061l-2.843 3.097 9.07 9.071-1.414 1.414-9.01-9.01-8.243 8.98L6 28.857l8.3-9.043-3.172-3.172a9.095 9.095 0 0 1-.877-11.845l.18-.233.14-.177a6.3 6.3 0 0 1 1.235-1.185zm7.18 2.57a4.3 4.3 0 0 0-6.848-.143l-.14.177a7.094 7.094 0 0 0 .544 9.422l3.113 3.112 2.785-3.034a7.543 7.543 0 0 0 .708-9.302l-.162-.232z" fill="#FFF" fill-rule="nonzero"/>
        <path d="M0 0h32v32H0z"/>
    </g>
</svg>
