<?xml version="1.0" encoding="UTF-8"?>
<svg width="36px" height="36px" viewBox="0 0 36 36" version="1.1" xmlns="http://www.w3.org/2000/svg"
    xmlns:xlink="http://www.w3.org/1999/xlink">
    <title>community</title>
    <g id="Donation-page" stroke="none" stroke-width="1" fill="none" fill-rule="evenodd">
        <g id="Home-Dark-Copy-3" transform="translate(-951.000000, -2508.000000)" fill="currentColor">
            <g id="community" transform="translate(951.000000, 2508.000000)">
                <path
                    d="M18.0001747,20.3226358 C12.8774487,20.3226358 8.70994878,16.2852038 8.70994878,11.2862754 L8.70994878,9.03626849 C8.70994878,4.03728488 12.8774487,0 18.0001747,0 C23.1229926,0 27.2906028,4.03728488 27.2906028,9.03626849 L27.2906028,11.2862754 C27.2906028,16.2852038 23.1229926,20.3226358 18.0001747,20.3226358 Z M17.9999908,17.9999816 C21.8563082,17.9999816 24.967766,14.9857899 24.967766,11.2862754 L24.967766,9.03626849 C24.967766,5.33679078 21.8563082,2.32258065 17.9999908,2.32258065 C14.1436734,2.32258065 11.032234,5.33679078 11.032234,9.03626849 L11.032234,11.2862754 C11.032234,14.9857899 14.1436734,17.9999816 17.9999908,17.9999816 Z M36,34.8386729 C36,34.197332 35.480014,33.6773458 34.8386735,33.6773458 L2.78196168,33.6773458 C2.58062341,33.6773458 2.42510569,33.499359 2.46129141,33.3013303 C3.2052685,29.2278597 6.85344443,26.1289035 11.2524742,26.1289035 L20.2224344,26.1289035 C20.8637749,26.1289035 21.3837609,25.6091012 21.3837609,24.9677603 C21.3837609,24.3264195 20.8637749,23.8064332 20.2224344,23.8064332 L11.2524742,23.8064332 C5.04307321,23.8064332 0,28.7394992 0,34.8386729 L0,35.6434748 C0,35.8404003 0.159581265,36 0.356433095,36 L34.8386735,36 C35.480014,36 36,35.4800138 36,34.8386729 Z M29.6132558,20.9031155 C29.6132558,20.2617746 30.1332418,19.7419723 30.7745823,19.7419723 C31.4159229,19.7419723 31.9359088,20.2617746 31.9359088,20.9031155 L31.9359088,23.8064332 L34.8381219,23.8064332 C35.4796463,23.8064332 35.9994484,24.3264195 35.9994484,24.9677603 C35.9994484,25.6091012 35.4796463,26.1289035 34.8381219,26.1289035 L31.9359088,26.1289035 L31.9359088,29.0322213 C31.9359088,29.6735622 31.4159229,30.1935484 30.7745823,30.1935484 C30.1332418,30.1935484 29.6132558,29.6735622 29.6132558,29.0322213 L29.6132558,26.1289035 L26.7092041,26.1289035 C26.0678636,26.1289035 25.5478776,25.6091012 25.5478776,24.9677603 C25.5478776,24.3264195 26.0678636,23.8064332 26.7092041,23.8064332 L29.6132558,23.8064332 L29.6132558,20.9031155 Z"
                    id="Shape"></path>
            </g>
        </g>
    </g>
</svg>