<svg width="82" height="82" viewBox="0 0 82 82" xmlns="http://www.w3.org/2000/svg">
    <g fill="none" fill-rule="evenodd">
        <path d="M41 0c22.644 0 41 18.356 41 41S63.644 82 41 82 0 63.644 0 41 18.356 0 41 0zm0 2C19.46 2 2 19.46 2 41s17.46 39 39 39 39-17.46 39-39S62.54 2 41 2z" fill="#7645D9" fill-rule="nonzero"/>
        <path d="M59.4 22.626a1.55 1.55 0 0 0-1.635-.361L23.499 34.818a1.569 1.569 0 0 0-1.005 1.468c0 .652.4 1.236 1.005 1.467l13.379 5.382 9.875-9.98 2.196 2.213-9.922 9.995 5.358 13.48c.236.597.81.989 1.449.988a1.558 1.558 0 0 0 1.433-1.035l12.46-34.522a1.578 1.578 0 0 0-.327-1.648z" fill="#7645D9" fill-rule="nonzero"/>
        <path d="M16 16h50v50H16z"/>
    </g>
</svg>
