<svg width="36" height="36" viewBox="0 0 36 36" xmlns="http://www.w3.org/2000/svg">
    <g fill="none" fill-rule="evenodd">
        <path d="M15.353 16.77a1.63 1.63 0 1 0 1.492 1.624 1.558 1.558 0 0 0-1.492-1.624zm5.338 0a1.63 1.63 0 1 0 1.492 1.624 1.558 1.558 0 0 0-1.492-1.624z" fill="#FFF" fill-rule="nonzero"/>
        <path d="M27.799 4.5H8.2a3.005 3.005 0 0 0-2.998 3.013v19.773a3.005 3.005 0 0 0 2.998 3.012h16.585l-.775-2.705 1.872 1.74 1.77 1.638 3.144 2.779V7.513A3.005 3.005 0 0 0 27.799 4.5zm-5.645 19.1s-.527-.629-.966-1.184a4.615 4.615 0 0 0 2.647-1.74c-.526.35-1.09.639-1.681.862-.68.29-1.392.502-2.121.629-1.253.23-2.537.226-3.788-.015a12.277 12.277 0 0 1-2.15-.629 8.57 8.57 0 0 1-1.068-.497c-.043-.029-.087-.044-.131-.073a.203.203 0 0 1-.059-.044 5.131 5.131 0 0 1-.41-.248 4.549 4.549 0 0 0 2.56 1.725c-.438.556-.98 1.214-.98 1.214a5.303 5.303 0 0 1-4.46-2.223c.047-2.965.767-5.88 2.106-8.526a7.232 7.232 0 0 1 4.11-1.536l.146.176a9.866 9.866 0 0 0-3.847 1.916s.322-.176.863-.425c1.051-.48 2.172-.79 3.32-.92a1.44 1.44 0 0 1 .249-.03c.98-.128 1.971-.138 2.954-.03 1.545.177 3.04.654 4.402 1.405a9.733 9.733 0 0 0-3.642-1.858l.205-.234a7.232 7.232 0 0 1 4.11 1.536 19.585 19.585 0 0 1 2.106 8.526 5.346 5.346 0 0 1-4.476 2.223z" fill="#FFF" fill-rule="nonzero"/>
        <path d="M0 0h36v36H0z"/>
    </g>
</svg>
