<?xml version="1.0" encoding="UTF-8"?>
<svg width="36px" height="36px" viewBox="0 0 36 36" version="1.1" xmlns="http://www.w3.org/2000/svg"
    xmlns:xlink="http://www.w3.org/1999/xlink">
    <title>donation</title>
    <g id="Donation-page" stroke="none" stroke-width="1" fill="none" fill-rule="evenodd">
        <g id="Home-Dark-Copy-3" transform="translate(-1388.000000, -2508.000000)" fill="currentColor">
            <g id="donation" transform="translate(1388.000000, 2508.000000)">
                <path
                    d="M18.0000919,36 C8.05890014,36 8.16553103e-16,27.9412837 8.16553103e-16,18.0000919 C8.16553103e-16,8.05890014 8.05890014,-8.16553103e-16 18.0000919,-8.16553103e-16 C27.9412837,-8.16553103e-16 36,8.05890014 36,18.0000919 C36,27.9412837 27.9412837,36 18.0000919,36 Z M33.5063359,20.3225717 C33.6188652,19.5648377 33.6771524,18.789268 33.6771524,18.0000919 C33.6771524,9.34162389 26.658229,2.32259014 17.9997242,2.32259014 C9.34134808,2.32259014 2.32231433,9.34162389 2.32231433,18.0000919 C2.32231433,18.789268 2.38061995,19.5648377 2.49316764,20.3225717 L16.4110752,20.3225717 L10.1297887,10.9007799 C9.77403429,10.3671299 9.91822625,9.64611495 10.4518763,9.29034215 C10.9855263,8.93458774 11.7065412,9.07877971 12.0622956,9.61242971 L18.9030844,19.8735578 C18.9964911,20.0136678 19.05533,20.1666488 19.0818075,20.3225717 L33.5063359,20.3225717 Z M32.9777056,22.6452354 L3.02190828,22.6452354 C5.001615,29.0356864 10.9586075,33.6775202 17.9997242,33.6775202 C25.0408961,33.6775202 30.9979621,29.0356864 32.9777056,22.6452354 Z"
                    id="Shape"></path>
            </g>
        </g>
    </g>
</svg>