<svg width="42" height="42" viewBox="0 0 42 42" xmlns="http://www.w3.org/2000/svg">
    <g fill="none" fill-rule="evenodd">
        <path d="M2.625 21c0 10.148 8.227 18.375 18.375 18.375S39.375 31.148 39.375 21 31.148 2.625 21 2.625 2.625 10.852 2.625 21zm30.384 10.172L10.83 8.99c6.257-5.21 15.454-4.79 21.212.968 5.758 5.758 6.178 14.955.968 21.213zm-22.194 1.85c-6.618-5.62-7.44-15.535-1.838-22.168l22.169 22.169a15.75 15.75 0 0 1-20.331 0z" fill="#EF7675" fill-rule="nonzero"/>
        <path d="M0 0h42v42H0z"/>
    </g>
</svg>
