<svg width="36" height="36" viewBox="0 0 36 36" xmlns="http://www.w3.org/2000/svg" xmlns:xlink="http://www.w3.org/1999/xlink">
    <defs>
        <path id="vr651b3rqa" d="M0 0h26v26H0z"/>
    </defs>
    <g fill="none" fill-rule="evenodd">
        <path d="M0 0h36v36H0z"/>
        <g transform="translate(4 5)">
            <mask id="522r8rn9nb" fill="#fff">
                <use xlink:href="#vr651b3rqa"/>
            </mask>
            <path d="M13 0C9.47 0 9.027.015 7.64.078 6.257.141 5.311.361 4.485.682a6.375 6.375 0 0 0-2.303 1.5 6.375 6.375 0 0 0-1.5 2.302c-.32.827-.54 1.772-.604 3.156C.015 9.027 0 9.47 0 13c0 3.53.015 3.973.078 5.36.063 1.383.283 2.329.604 3.155.333.855.777 1.58 1.5 2.303a6.375 6.375 0 0 0 2.303 1.5c.826.32 1.772.54 3.155.604C9.027 25.985 9.47 26 13 26c3.53 0 3.973-.015 5.36-.078 1.384-.063 2.329-.283 3.155-.604a6.375 6.375 0 0 0 2.303-1.5 6.375 6.375 0 0 0 1.5-2.303c.32-.826.54-1.772.604-3.155.063-1.387.078-1.83.078-5.36 0-3.53-.015-3.973-.078-5.36-.063-1.384-.283-2.329-.604-3.156a6.375 6.375 0 0 0-1.5-2.302 6.375 6.375 0 0 0-2.303-1.5c-.826-.32-1.771-.54-3.155-.604C16.973.015 16.53 0 13 0m0 2.342c3.471 0 3.882.014 5.253.076 1.267.058 1.956.27 2.414.448.607.236 1.04.517 1.495.972.455.455.736.888.972 1.495.178.458.39 1.146.448 2.414.062 1.37.076 1.782.076 5.253s-.014 3.882-.076 5.253c-.058 1.267-.27 1.956-.448 2.414a4.028 4.028 0 0 1-.972 1.495 4.028 4.028 0 0 1-1.495.972c-.458.178-1.147.39-2.414.448-1.37.062-1.782.076-5.253.076s-3.882-.014-5.253-.076c-1.267-.058-1.956-.27-2.414-.448a4.028 4.028 0 0 1-1.495-.972 4.028 4.028 0 0 1-.972-1.495c-.178-.458-.39-1.147-.448-2.414-.062-1.37-.076-1.782-.076-5.253s.014-3.882.076-5.253c.058-1.268.27-1.956.448-2.414.236-.607.517-1.04.972-1.495a4.028 4.028 0 0 1 1.495-.972c.458-.178 1.147-.39 2.414-.448 1.37-.062 1.782-.076 5.253-.076" fill="#FFF" mask="url(#522r8rn9nb)"/>
        </g>
        <path d="M17.5 22.72a4.22 4.22 0 1 1 0-8.44 4.22 4.22 0 0 1 0 8.44m0-10.72a6.5 6.5 0 1 0 0 13 6.5 6.5 0 0 0 0-13M26 11.5a1.5 1.5 0 1 1-3 0 1.5 1.5 0 0 1 3 0" fill="#FFF"/>
    </g>
</svg>
