<svg width="26" height="15" viewBox="0 0 26 15" xmlns="http://www.w3.org/2000/svg">
    <path d="M7.485 14.784c4.134 0 7.485-3.31 7.485-7.392C14.97 3.31 11.619 0 7.485 0S0 3.31 0 7.392c0 4.083 3.351 7.392 7.485 7.392zm11.424 0c-1.958 0-3.545-3.31-3.545-7.392C15.364 3.31 16.95 0 18.909 0s3.546 3.31 3.546 7.392c0 4.083-1.588 7.392-3.546 7.392zm5.515 0c.87 0 1.576-3.31 1.576-7.392C26 3.31 25.295 0 24.424 0c-.87 0-1.576 3.31-1.576 7.392 0 4.083.706 7.392 1.576 7.392z" fill="#FFF" fill-rule="evenodd"/>
</svg>
