<?xml version="1.0" encoding="UTF-8"?>
<svg width="32px" height="32px" viewBox="0 0 32 32" version="1.1" xmlns="http://www.w3.org/2000/svg" xmlns:xlink="http://www.w3.org/1999/xlink">
    <title>friendship</title>
    <g id="Donation-page" stroke="none" stroke-width="1" fill="none" fill-rule="evenodd">
        <g id="Create-Fundraiser-Project-Copy" transform="translate(-213.000000, -2041.000000)">
            <g id="friendship" transform="translate(213.000000, 2041.000000)">
                <path d="M25,10 L7,10 C5.34389967,10.0018187 4.00181871,11.3438997 4,13 L4,19 C4.00126747,20.1040441 4.89595593,20.9987325 6,21 L6,28 C6.00126747,29.1040441 6.89595593,29.9987325 8,30 L12,30 C13.1040441,29.9987325 13.9987325,29.1040441 14,28 L14,16 L12,16 L12,28 L8,28 L8,19 L6,19 L6,13 C6.0004962,12.4479209 6.44792091,12.0004962 7,12 L25,12 C25.5520791,12.0004962 25.9995038,12.4479209 26,13 L26,19 L24,19 L24,28 L20,28 L20,16 L18,16 L18,28 C18.0012675,29.1040441 18.8959559,29.9987325 20,30 L24,30 C25.1040441,29.9987325 25.9987325,29.1040441 26,28 L26,21 C27.1040441,20.9987325 27.9987325,20.1040441 28,19 L28,13 C27.9981813,11.3438997 26.6561003,10.0018187 25,10 Z" id="Path" fill="#FFFFFF" fill-rule="nonzero"></path>
                <path d="M10,9 C7.790861,9 6,7.209139 6,5 C6,2.790861 7.790861,1 10,1 C12.209139,1 14,2.790861 14,5 C13.9976851,7.20817941 12.2081794,8.99768506 10,9 Z M10,3 C8.8954305,3 8,3.8954305 8,5 C8,6.1045695 8.8954305,7 10,7 C11.1045695,7 12,6.1045695 12,5 C11.9987325,3.89595593 11.1040441,3.00126747 10,3 Z" id="Shape" fill="#FFFFFF" fill-rule="nonzero"></path>
                <path d="M22,9 C19.790861,9 18,7.209139 18,5 C18,2.790861 19.790861,1 22,1 C24.209139,1 26,2.790861 26,5 C25.9976851,7.20817941 24.2081794,8.99768506 22,9 Z M22,3 C20.8954305,3 20,3.8954305 20,5 C20,6.1045695 20.8954305,7 22,7 C23.1045695,7 24,6.1045695 24,5 C23.9987325,3.89595593 23.1040441,3.00126747 22,3 L22,3 Z" id="Shape" fill="#FFFFFF" fill-rule="nonzero"></path>
                <rect id="_Transparent_Rectangle_" x="0" y="0" width="32" height="32"></rect>
            </g>
        </g>
    </g>
</svg>