<?xml version="1.0" encoding="UTF-8"?>
<svg width="36px" height="34px" viewBox="0 0 36 34" version="1.1" xmlns="http://www.w3.org/2000/svg"
    xmlns:xlink="http://www.w3.org/1999/xlink">
    <title>start</title>
    <g id="Donation-page" stroke="none" stroke-width="1" fill="none" fill-rule="evenodd">
        <g id="Home-Dark-Copy-3" transform="translate(-548.000000, -2510.000000)" fill="currentColor">
            <g id="start" transform="translate(548.000000, 2510.000000)">
                <path
                    d="M13.9354546,11.7242678 C10.7286355,11.7242678 8.12897996,9.0996969 8.12897996,5.86212463 C8.12897996,2.62457093 10.7286355,0 13.9354546,0 C17.1423657,0 19.7419477,2.62457093 19.7419477,5.86212463 C19.7419477,9.0996969 17.1423657,11.7242678 13.9354546,11.7242678 Z M13.9351788,9.37941055 C15.8593071,9.37941055 17.4190931,7.80467542 17.4190931,5.8621432 C17.4190931,3.91959241 15.8593071,2.34485728 13.9351788,2.34485728 C12.0110873,2.34485728 10.4513014,3.91959241 10.4513014,5.8621432 C10.4513014,7.80467542 12.0110873,9.37941055 13.9351788,9.37941055 Z M27.8711115,18.7587469 C24.6642004,18.7587469 22.0646185,16.1342502 22.0646185,12.8966037 C22.0646185,9.6591242 24.6642004,7.03455327 27.8711115,7.03455327 C31.0780226,7.03455327 33.6776046,9.6591242 33.6776046,12.8966037 C33.6776046,16.1342502 31.0780226,18.7587469 27.8711115,18.7587469 Z M27.8707438,16.414001 C29.794964,16.414001 31.3547499,14.8392658 31.3547499,12.8966037 C31.3547499,10.9541457 29.794964,9.37941055 27.8707438,9.37941055 C25.9467075,9.37941055 24.3869215,10.9541457 24.3869215,12.8966037 C24.3869215,14.8392658 25.9467075,16.414001 27.8707438,16.414001 Z M18.728997,24.0346572 C20.1084045,24.0346572 20.8080374,22.5209957 19.4825043,22.135619 C19.2357482,22.0639642 18.9843952,22.0247954 18.7352486,22.0247954 L14.2449112,22.0247954 C13.8651788,22.0247954 13.5094417,21.8374905 13.2922705,21.5230261 L13.2922705,21.5230261 C12.2137142,19.9610997 9.71555606,18.7587469 7.50938657,18.7587469 L7.50938657,18.7587469 C7.21026365,18.7587469 6.96777329,19.0035984 6.96777329,19.3056253 L6.96777329,25.9502167 C6.96777329,26.6478302 7.35517315,27.2865975 7.97062942,27.6036608 L15.0601995,31.2565711 C16.0119208,31.7394057 17.1208527,31.7859999 18.1025452,31.3872576 L30.3930995,26.3231559 C31.5077314,25.8638968 31.4900797,24.6208901 30.2862699,24.6208901 L30.2862699,24.6208901 L24.9304471,24.6208901 C24.6220938,24.6208901 24.3869215,24.8958143 24.3869215,25.2071229 L24.3869215,25.2071229 L24.3869215,25.2071229 C24.3869215,25.8546151 23.8669316,26.3795887 23.2255861,26.3795887 L14.2836162,26.3795887 C13.6422524,26.3795887 13.1223176,25.8546151 13.1223176,25.2071229 L13.1223176,25.2071229 C13.1223176,24.5596308 13.6422524,24.0346572 14.2836162,24.0346572 L18.728997,24.0346572 Z M7.50938657,16.414001 L7.50938657,16.414001 C7.21026365,16.414001 6.96777329,16.1691494 6.96777329,15.8671225 L6.96777329,15.2415352 C6.96777329,14.594043 6.44785689,14.0690694 5.80649306,14.0690694 L1.83871974,14.0690694 C0.823231601,14.0690694 0,14.9001538 0,15.9254117 L0,29.2548772 C0,30.280135 0.823231601,31.1112195 1.83871974,31.1112195 L6.44427139,31.1112195 C6.73339168,31.1112195 6.96777329,30.8745358 6.96777329,30.5827188 L6.96777329,30.5827188 C6.96777329,30.1878748 7.380952,29.9324421 7.72927907,30.1119504 L14.0108973,33.3484832 C15.5647442,34.1366861 17.3692637,34.2126105 18.9748338,33.5604774 L35.2774746,26.843303 L35.2774746,26.843303 C35.7877194,26.6329794 36.081179,26.089628 35.9802333,25.5427496 L35.9802333,25.5427496 C35.9486073,25.3715949 35.8780005,25.1454924 35.7514966,24.8833768 C35.5589826,24.4846345 35.2780263,24.0948027 34.8952048,23.7396844 C33.8899767,22.8074293 32.3678845,22.2761442 30.2862699,22.2761442 L24.3600762,22.2761442 C23.7623084,22.2761442 23.2145538,21.9698477 22.7993709,21.5356492 C21.7329134,20.4205444 20.2501698,19.6800495 18.7352486,19.6800495 L15.6618286,19.6800495 C15.1232676,19.6800495 14.6198261,19.4327847 14.2260643,19.0618875 C12.5241637,17.4593073 9.92136396,16.414001 7.50938657,16.414001 Z M3.48360164,28.7662879 C2.84223781,28.7662879 2.32230303,28.2415 2.32230303,27.5938222 L2.32230303,17.5864667 C2.32230303,16.9389745 2.84223781,16.414001 3.48360164,16.414001 L3.48360164,16.414001 C4.12496547,16.414001 4.64490025,16.9389745 4.64490025,17.5864667 L4.64490025,27.5938222 C4.64490025,28.2415 4.12496547,28.7662879 3.48360164,28.7662879 L3.48360164,28.7662879 Z"
                    id="Shape"></path>
            </g>
        </g>
    </g>
</svg>