<svg width="36" height="36" viewBox="0 0 36 36" xmlns="http://www.w3.org/2000/svg" xmlns:xlink="http://www.w3.org/1999/xlink">
    <defs>
        <path id="hc6mc7ksla" d="M0 0h26v21.667H0z"/>
    </defs>
    <g fill="none" fill-rule="evenodd">
        <g transform="translate(5 7)">
            <mask id="c0lo11npqb" fill="#fff">
                <use xlink:href="#hc6mc7ksla"/>
            </mask>
            <path d="M25.988 1.531c-.066.938-.598 4.22-1.13 7.77L23.197 19.82s-.133 1.541-1.263 1.809-2.991-.938-3.324-1.206c-.266-.2-4.985-3.215-6.713-4.689-.466-.402-.997-1.206.066-2.144 2.393-2.21 5.251-4.957 6.98-6.699.797-.804 1.595-2.68-1.729-.402l-9.372 6.364s-1.064.67-3.057.067a137.382 137.382 0 0 1-4.321-1.406s-1.595-1.005 1.13-2.077l15.487-6.431c1.53-.67 6.714-2.814 6.714-2.814s2.393-.938 2.193 1.34" fill="#FFF" mask="url(#c0lo11npqb)"/>
        </g>
        <path d="M0 0h36v36H0z"/>
    </g>
</svg>
