<svg width="32" height="32" viewBox="0 0 32 32" xmlns="http://www.w3.org/2000/svg">
    <g fill="none" fill-rule="evenodd">
        <path d="M29.121 16.879A2.98 2.98 0 0 0 27.01 16H27a2.977 2.977 0 0 0-2.121.879l-4.901 4.901A2.994 2.994 0 0 0 17 19h-7a5.006 5.006 0 0 0-5 5v.667l-3 3.996 1.6 1.2 3.4-4.53V24a3.003 3.003 0 0 1 3-3h7a1 1 0 0 1 0 2h-4v2h4.929a3.972 3.972 0 0 0 2.828-1.172l5.536-5.535A.993.993 0 0 1 27 18h.003a1 1 0 0 1 .704 1.707l-7.414 7.414a2.98 2.98 0 0 1-2.122.879H11v2h7.171a4.967 4.967 0 0 0 3.536-1.465l7.414-7.414a2.999 2.999 0 0 0 0-4.242zM21.586 8.586 18 12V2h-2v10l-3.586-3.414L11 10l6 6 6-6z" fill="#FFF" fill-rule="nonzero"/>
        <path d="M0 0h32v32H0z"/>
    </g>
</svg>
