<svg width="26" height="26" viewBox="0 0 26 26" xmlns="http://www.w3.org/2000/svg">
    <path d="M13 0C5.82 0 0 5.82 0 13s5.82 13 13 13 13-5.82 13-13A13 13 0 0 0 13 0zm11.143 12.071H18.57a22.527 22.527 0 0 0-2.59-9.796 11.143 11.143 0 0 1 8.162 9.796zM13 24.143a4.643 4.643 0 0 1-.622 0 20.29 20.29 0 0 1-3.092-10.214h7.428a20.29 20.29 0 0 1-3.064 10.214 4.643 4.643 0 0 1-.65 0zM9.286 12.07A20.29 20.29 0 0 1 12.35 1.857c.413-.046.83-.046 1.244 0a20.29 20.29 0 0 1 3.12 10.214H9.286zm.705-9.796a22.527 22.527 0 0 0-2.562 9.796H1.857a11.143 11.143 0 0 1 8.162-9.796h-.028zM1.904 13.929h5.571c.097 3.416.97 6.767 2.554 9.796a11.143 11.143 0 0 1-8.125-9.796zm14.077 9.796a22.527 22.527 0 0 0 2.59-9.796h5.572a11.143 11.143 0 0 1-8.162 9.796z" fill="#FFF" fill-rule="nonzero"/>
</svg>
