<?xml version="1.0" encoding="UTF-8"?>
<svg width="38px" height="38px" viewBox="0 0 38 38" version="1.1" xmlns="http://www.w3.org/2000/svg" xmlns:xlink="http://www.w3.org/1999/xlink">
    <title>INSTA</title>
    <g id="Symbols" stroke="none" stroke-width="1" fill="none" fill-rule="evenodd">
        <g id="BGR_Footer" transform="translate(-1576.000000, -94.000000)" fill="#FFFFFF">
            <g id="Footer-widget-1" transform="translate(1384.000000, 65.000000)">
                <g id="Socials" transform="translate(0.000000, 29.000000)">
                    <g id="INSTA" transform="translate(192.000000, 0.000000)">
                        <rect id="Rectangle" fill-opacity="0.15" x="0" y="0" width="38" height="38" rx="2"></rect>
                        <g id="logo--instagram" transform="translate(11.000000, 11.000000)" fill-rule="nonzero">
                            <circle id="Oval" cx="12.2704" cy="3.7296" r="1"></circle>
                            <path d="M8,3.89186667 C5.73114061,3.89186667 3.89186667,5.73114061 3.89186667,8 C3.89186667,10.2688594 5.73114061,12.1081333 8,12.1081333 C10.2688594,12.1081333 12.1081333,10.2688594 12.1081333,8 C12.1081333,5.73114061 10.2688594,3.89186667 8,3.89186667 L8,3.89186667 Z M8,10.6666667 C6.52724067,10.6666667 5.33333333,9.47275933 5.33333333,8 C5.33333333,6.52724067 6.52724067,5.33333333 8,5.33333333 C9.47275933,5.33333333 10.6666667,6.52724067 10.6666667,8 C10.6666667,8.70724397 10.3857151,9.38552107 9.88561808,9.88561808 C9.38552107,10.3857151 8.70724397,10.6666667 8,10.6666667 Z" id="Shape"></path>
                            <path d="M8,1.4414 C10.1360667,1.4414 10.3891333,1.4496 11.2326667,1.48813333 C11.739969,1.4941724 12.2424602,1.58735076 12.7182,1.7636 C13.4158424,2.03279597 13.9672707,2.58422431 14.2364667,3.28186667 C14.4127159,3.75760646 14.5058943,4.26009765 14.5119333,4.7674 C14.5504,5.61093333 14.5586,5.864 14.5586,8.00006667 C14.5586,10.1361333 14.5504667,10.3892 14.5119333,11.2327333 C14.5058943,11.7400357 14.4127159,12.2425269 14.2364667,12.7182667 C13.9672707,13.415909 13.4158424,13.9673374 12.7182,14.2365333 C12.2424602,14.4127826 11.739969,14.5059609 11.2326667,14.512 C10.3892,14.5504667 10.1362667,14.5586667 8,14.5586667 C5.86373333,14.5586667 5.6108,14.5505333 4.76733333,14.512 C4.26003098,14.5059609 3.7575398,14.4127826 3.2818,14.2365333 C2.58415764,13.9673374 2.03272931,13.415909 1.76353333,12.7182667 C1.5872841,12.2425269 1.49410573,11.7400357 1.48806667,11.2327333 C1.4496,10.3892 1.4414,10.1361333 1.4414,8.00006667 C1.4414,5.864 1.44953333,5.61093333 1.48806667,4.7674 C1.49410573,4.26009765 1.5872841,3.75760646 1.76353333,3.28186667 C2.03271367,2.58419902 2.58414418,2.0327443 3.2818,1.76353333 C3.7575398,1.5872841 4.26003098,1.49410573 4.76733333,1.48806667 C5.61086667,1.4496 5.86393333,1.4414 8,1.4414 M8,0 C5.82733333,0 5.55486667,0.0092 4.7016,0.0481333333 C4.03803359,0.0614554021 3.38152935,0.187192961 2.76,0.42 C1.6852457,0.835621295 0.835621295,1.6852457 0.42,2.76 C0.18715598,3.38163457 0.0614178218,4.03825465 0.0481333333,4.70193333 C0.0092,5.55486667 0,5.82733333 0,8 C0,10.1726667 0.0092,10.4451333 0.0481333333,11.2984 C0.061425532,11.9620779 0.187163443,12.6186967 0.42,13.2403333 C0.835621295,14.3150876 1.6852457,15.164712 2.76,15.5803333 C3.38163457,15.8131774 4.03825465,15.9389155 4.70193333,15.9522 C5.55486667,15.9908 5.82733333,16 8,16 C10.1726667,16 10.4451333,15.9908 11.2984,15.9518667 C11.9620779,15.9385745 12.6186967,15.8128366 13.2403333,15.58 C14.3150876,15.1643787 15.164712,14.3147543 15.5803333,13.24 C15.8131699,12.6183633 15.9389078,11.9617445 15.9522,11.2980667 C15.9908,10.4451333 16,10.1726667 16,8 C16,5.82733333 15.9908,5.55486667 15.9518667,4.7016 C15.9385446,4.03803359 15.812807,3.38152935 15.58,2.76 C15.1643007,1.6853721 14.3146871,0.835879563 13.24,0.420333333 C12.6183633,0.187496777 11.9617445,0.0617588653 11.2980667,0.0484666667 C10.4451333,0.0092 10.1726667,0 8,0 Z" id="Shape"></path>
                        </g>
                    </g>
                </g>
            </g>
        </g>
    </g>
</svg>