<?xml version="1.0" encoding="UTF-8"?>
<svg width="38px" height="38px" viewBox="0 0 38 38" version="1.1" xmlns="http://www.w3.org/2000/svg" xmlns:xlink="http://www.w3.org/1999/xlink">
    <title>MEDIUM</title>
    <g id="Symbols" stroke="none" stroke-width="1" fill="none" fill-rule="evenodd">
        <g id="BGR_Footer" transform="translate(-1528.000000, -94.000000)">
            <g id="Footer-widget-1" transform="translate(1384.000000, 65.000000)">
                <g id="Socials" transform="translate(0.000000, 29.000000)">
                    <g id="MEDIUM" transform="translate(144.000000, 0.000000)">
                        <g id="logo--medium" transform="translate(10.000000, 10.000000)">
                            <path d="M16.875,9 C16.875,11.08125 16.5375,12.76875 16.0875,12.76875 C15.6375,12.76875 15.3,11.08125 15.3,9 C15.3,6.91875 15.6375,5.23125 16.0875,5.23125 C16.5375,5.23125 16.875,6.91875 16.875,9" id="Path" fill="#000" fill-rule="nonzero"></path>
                            <path d="M14.90625,9 C14.90625,11.30625 13.89375,13.21875 12.7125,13.21875 C11.53125,13.21875 10.51875,11.30625 10.51875,9 C10.51875,6.69375 11.53125,4.78125 12.7125,4.78125 C13.89375,4.78125 14.90625,6.69375 14.90625,9" id="Path" fill="#000" fill-rule="nonzero"></path>
                            <path d="M10.0125,9 C10.0125,11.475 8.04375,13.5 5.56875,13.5 C3.09375,13.5 1.125,11.475 1.125,9 C1.125,6.525 3.09375,4.5 5.56875,4.5 C8.04375,4.5 10.0125,6.525 10.0125,9" id="Path" fill="#000" fill-rule="nonzero"></path>
                            <rect id="_x3C_Transparent_Rectangle_x3E__155_" x="0" y="0" width="18" height="18"></rect>
                        </g>
                    </g>
                </g>
            </g>
        </g>
    </g>
</svg>